<svg xmlns="http://www.w3.org/2000/svg" viewBox="0 0 448.82 400.17"><defs><style>.cls-1{fill:#6dc292;}.cls-2{fill:#3f5ea9;}.cls-3{fill:#5ac0a5;}.cls-4{fill:#3f64ae;}.cls-5{fill:#49bcae;}.cls-6{fill:#39bcb9;}.cls-7{fill:#2292cb;}.cls-8{fill:#29bac0;}.cls-9{fill:#65c19a;}.cls-10{fill:#3b72b7;}.cls-11{fill:#0ea6d2;}.cls-12{fill:#0ea8cb;}.cls-13{fill:#17bac8;}.cls-14{fill:#0fb2ca;}</style></defs><g id="Layer_2" data-name="Layer 2"><g id="Layer_1-2" data-name="Layer 1"><path class="cls-1" d="M374.21,149.19c0-.36-.1-.71-.16-1.07,0-1.07.19-2.22-1-2.92-5.69-15.38-12.1-30.42-21.29-44.1C323,58.24,283.41,31,232.69,21.87,175.91,11.7,125,26,80.9,63.54c-1.14,1-2.36,1.83-3.53,2.75-2.18-.05-4.32.07-6.21,1.37-4,2.73-8.19,2-12.39.78-3.68-1.06-3.67-3.15-1.67-6,1.1-1.57,4.19-2,2.94-5a192.4,192.4,0,0,1,104-54C207.12-4.28,248.71.87,287.91,20.49c53.46,26.75,88.3,69.36,105,126.75a8.53,8.53,0,0,1,.11,2c.11,3.65-.1,7.09-4.76,7.88-6.15,1-8.5,0-10.36-4.88C377.25,150.42,375.58,150,374.21,149.19Z"/><path class="cls-2" d="M101.8,352.65c12.24,6.87,24.54,13.54,37.89,18.19a179.63,179.63,0,0,0,70.27,10c1.48-.09,3,0,4.45,0-1,1.13-2.43.9-3.72.88-5-.1-9.69,2.86-14.84,1.07a2.12,2.12,0,0,0-2.91,1.87c-.09,1.47,1.16,1.86,2.37,2,7.9.83,15.32,3.8,23,5.26,6.23,1.18,11.77,5.82,18.66,3.79a20.78,20.78,0,0,1,8.3-1c-9.67,3.27-19.76,4.24-29.81,5-35.77,2.6-70.06-3.46-102.4-19.13-18.88-9.15-36.27-20.6-51-35.75,3-.69,4.09,2.33,6.21,3.36,3.32,1.61,7.34.41,9.86,2.23,5.66,4.11,12.08,4.67,18.47,6C100.08,357,101.67,356.16,101.8,352.65Z"/><path class="cls-3" d="M254.25,154.65c.11-1.41,1.17-1.42,2.16-1.4,15.27.44,30.6-1.12,45.83.87,23.79,3.1,36.75,25.28,27,45.94-2.24-.55-4.56-.75-6.8-1.15-3.46-.63-7.28.16-10.36-2.23,6-15.32.31-26-15.58-28.1-7.52-1-15.25-.32-22.89-.45a2.1,2.1,0,0,0-2.33,2c-1.59-.07-3.3,1.86-4.63.4-3.77-4.14-8-2.25-12.18-1.32Z"/><path class="cls-4" d="M245.29,394.62a20.78,20.78,0,0,0-8.3,1c-6.89,2-12.43-2.61-18.66-3.79-7.7-1.46-15.12-4.43-23-5.26-1.21-.12-2.46-.51-2.37-2a2.12,2.12,0,0,1,2.91-1.87c5.15,1.79,9.87-1.17,14.84-1.07,1.29,0,2.68.25,3.72-.88l4-.14c2-.22,4.2.74,6-.89,17.44-2.6,34.16-7.77,50.48-14.33,2.95,1.39,6,4.16,8.83,3.89,6.49-.62,12.16,3.24,18.5,2.38-14.77,9.65-31,16.06-47.83,20.9C251.42,393.46,248.55,395,245.29,394.62Z"/><path class="cls-4" d="M101.8,352.65c-.13,3.51-1.72,4.36-5.2,3.64-6.39-1.32-12.81-1.88-18.47-6-2.52-1.82-6.54-.62-9.86-2.23-2.12-1-3.25-4.05-6.21-3.36l-.25,0-.08-.24a1.13,1.13,0,0,0-.68-.67c-.24,0-.34-.12-.32-.36a1.25,1.25,0,0,0-.66-.66l-.25-.07-.06-.25a1.38,1.38,0,0,0-.69-.68l-.26-.27a1.76,1.76,0,0,0-1.8-1.76l-.25-.28a1.36,1.36,0,0,0-.68-.68l-.32-.27-.72-.73-.24-.09,0-.26a1.4,1.4,0,0,0-.6-.63c-.24,0-.36-.12-.34-.36a1.57,1.57,0,0,0-1.34-1.56A159.91,159.91,0,0,1,24,294.77c5-.17,10,.14,14.57,2.26a33.19,33.19,0,0,0,9.87,2.71C58.55,315.65,72,328.58,85.82,341.16c2.17,2,4.56,3.73,6.84,5.59a2,2,0,0,0,2,.95l1.14.87a1.6,1.6,0,0,0,1.75,1.15l.19.12c.34.27.67.55,1,.83h0a1.76,1.76,0,0,0,1.8,1.07l.18.11,1,.82Z"/><path class="cls-5" d="M144.47,155c.05-1.69,1.28-1.71,2.47-1.68,16.11.41,32.26-1.08,48.33.84,21,2.52,36.1,17,39.8,37.92-2.15-.43-2.34-3.19-4.3-3.74A43.87,43.87,0,0,1,218.46,183c-2.32-1.5-3.16,0-3.14,2.26-5.66-9.9-14.24-15.5-25.48-16.73-9.07-1-18.2-.43-27.31-.28-.38,0-.76.53-1.14.81-4.91-4.8-10.77-4.06-16.71-2.87Z"/><path class="cls-6" d="M49,159.14c-1.07-4.41.21-6.16,5.15-5.92,14.24.69,28.54-.91,42.74.93,15.68,2,26.37,11.28,29.26,25a33.29,33.29,0,0,1,.35,4.91c-2-.17-2.4-2.11-3.43-3.3-.81-.93-1.54-2.05-2.81-1.37-3.44,1.84-7.84,1.47-10.67,4.67-2.09-10.27-9.07-15-18.86-15.71a150.29,150.29,0,0,0-24.74.09c-.1-2.94-1.35-4.65-4.56-4.33-2.63.26-4.67-1-6.78-2.4C52.94,160.59,51.42,158.78,49,159.14Z"/><path class="cls-7" d="M368,307.77a171.21,171.21,0,0,1-33.59,40c-4.66-3.41-9.69-5.87-15.6-6-1.52,0-2.51-.55-2.61-2.2,4.66-4.45,9.35-8.85,14-13.34,7-6.85,12.72-14.81,18.84-22.41,2.53.33,4.37,2.59,7.43,1.92C360.4,304.85,364.17,306.9,368,307.77Z"/><path class="cls-5" d="M401.94,207.42C412,213,418.29,221.13,419,233c-5.33-1.74-11.18-1.12-16.35-3.62-2.11-1-3.38.4-4.7,1.65-6.13-7.58-11.79-8.57-19.31-3.4-.75-1.85-.22-5.08-2.92-5-5.8.07-10.4-4.86-16.36-3.53,3.83-6.44,9.13-11,16.43-13.09,2.57.12,5.05.63,7.74.48,3-.17,6.66-.27,9.39,2.05C396.34,211.35,399.36,211.46,401.94,207.42Z"/><path class="cls-8" d="M366.12,261.56c-5.86-4.09-9.16-9.82-10.78-16.65a1.58,1.58,0,0,0,.49-2.13,4.2,4.2,0,0,0-.76.27c-1.32-1.89-1-4-.76-6.07a43.26,43.26,0,0,1,7,.25c4.94.52,8.92,4.13,14,3.66,5,7.81,9.42,9.25,18.49,5.93a5.89,5.89,0,0,1,4.41,1.76c3.18,3.37,7.28,3.42,11.15,2.07,2.92-1,4.29,0,5.61,2.16a29,29,0,0,1-20.89,15.41c.85-4.67-1.17-6.41-6.73-7.41-5-.9-10.19.49-15.19-1.64C370.58,258.51,366.58,257,366.12,261.56Z"/><path class="cls-9" d="M415,190.94a16.51,16.51,0,0,1,17-16.87,17,17,0,0,1,16.91,17.1A17.14,17.14,0,0,1,432,207.93,16.79,16.79,0,0,1,415,190.94Z"/><path class="cls-10" d="M316.21,339.54c.1,1.65,1.09,2.17,2.61,2.2,5.91.12,10.94,2.58,15.6,6a140.41,140.41,0,0,1-30.8,23l-1.36.89,0,0c-6.34.86-12-3-18.5-2.38-2.79.27-5.88-2.5-8.83-3.89l3.39-1.73a2,2,0,0,0,2-1l.07,0,1.95-.75A322.39,322.39,0,0,0,316.21,339.54Z"/><path class="cls-11" d="M144.47,155l.21,11.24a185.94,185.94,0,0,0,.08,22q0,7.9.05,15.81a68.85,68.85,0,0,0,0,12.92c-.09,1-.24,2-.26,3-.15,6.59-.09,6.24,6.3,7.21,3.82.58,8.89-.49,10.44,5.32.35,1.3,2.42,1.49,4,1.52,8,.15,16.12-1.19,23.6,3,4.62,2.58,11.47.55,14.31,6.87-4.95,2.17-10.26,2.74-15.52,2.83-13.1.2-26.2,0-39.3.09-2.36,0-4.18,0-4.16-3.26Q144.41,199.24,144.47,155Z"/><path class="cls-6" d="M311.23,216.65c-13,5-26.54,2.91-39.9,3.35-1-.48-.71-5-3.25-1.07-.69,1.08-1.14.49-1.69-.37-3.54-5.58-7.49-6.05-11.8-1.46-.53-8.64-.4-17.29-.12-25.94a7.8,7.8,0,0,1,4.71.82c4,2.07,8,4.05,12,6.07,1.14,2.26-1.59,5.65,2.1,7.15a3.77,3.77,0,0,0,4.94,0h10a2.93,2.93,0,0,0,3.15,2.62c4.3-.47,7.91,2,12,2.4A8.81,8.81,0,0,1,311.23,216.65Z"/><path class="cls-7" d="M18.52,195.08c.46,10.57.59,21.18,1.53,31.71.49,5.5,2.33,10.89,3.72,16.29.72,2.79.11,4.11-3,3.75a32.83,32.83,0,0,0-4,0c-11.4.08-11.71.13-13.51-10.91C.63,219.55-1.21,203.1,1,186.5l.21,3.65c-.08,3.79-.06,7.59-.27,11.37-.19,3.5,1.41,4.62,4.75,4.56,12-.2,12-.13,12.26-11C18.11,195.06,18.32,195.06,18.52,195.08Z"/><path class="cls-9" d="M374.21,149.19c1.37.85,3,1.23,3.73,3,1.86,4.87,4.21,5.92,10.36,4.88,4.66-.79,4.87-4.23,4.76-7.88,4.73,14.58,6,29.69,6.84,44.85.22,4,0,7.95,0,11.92-1.91-4.44-.65-9.09-.78-13.64-.11-3.49-1.11-5.18-4.66-3.87-3.4,1.25-6.13-.38-8.89-1.76-1.47-.73-2.71-1.89-4.52-1.61-2-10.56-2.81-21.33-5.93-31.68C374.7,152,374.51,150.6,374.21,149.19Z"/><path class="cls-11" d="M87.73,219.77,66.66,220c-3.36,2.27-1.57,5.72-1.84,8.64-.21,2.25-.49,2.95-3.17,2.63C57.24,230.71,53.72,227,49,228q0-11.46,0-22.91l17.1-.24a.54.54,0,0,1,.65.33c-.41,3.2,1.93,4.35,4.21,4.36,7,.06,12.56,4.88,19.34,5.46,4,.35,3.21,2.23,1.39,4.42l-3,.34C88.33,219.3,88,219.34,87.73,219.77Z"/><path class="cls-10" d="M48.43,299.74A33.19,33.19,0,0,1,38.56,297C34,294.91,29,294.6,24,294.77c-4.5-7-7.38-14.82-10.68-22.42-1-2.4-.64-3.89,2.4-3.64a5.72,5.72,0,0,0,1.49,0c10.57-1.94,17.54,1.1,21,12.37C40.18,287.73,44.92,293.55,48.43,299.74Z"/><path class="cls-5" d="M42.28,110.24c-3.05,6.24-6.22,12.42-9.07,18.75a3.43,3.43,0,0,1-3.74,2.34c-4.65-.05-9.29-.09-13.93,0-2.67.07-3.17-.9-2.19-3.26,3.67-8.86,7.18-17.79,12.49-25.85,1.41,3.11,3.28,5.17,7.19,5.35A22.12,22.12,0,0,1,42.28,110.24Z"/><path class="cls-3" d="M42.28,110.24A22.12,22.12,0,0,0,33,107.59c-3.91-.18-5.78-2.24-7.19-5.35A102.31,102.31,0,0,1,38.73,82.16a11.86,11.86,0,0,0,6.49,3.17c3.91.87,7.75,2,11.62,3.08C51.34,95.25,47.15,103,42.28,110.24Z"/><path class="cls-9" d="M56.84,88.41c-3.87-1-7.71-2.21-11.62-3.08a11.86,11.86,0,0,1-6.49-3.17A133.61,133.61,0,0,1,60,57.46c1.25,2.95-1.84,3.42-2.94,5-2,2.84-2,4.93,1.67,6,4.2,1.2,8.42,2,12.39-.78,1.89-1.3,4-1.42,6.21-1.37C70.08,73.25,63.54,80.91,56.84,88.41Z"/><path class="cls-12" d="M203.16,243.83c-2.84-6.32-9.69-4.29-14.31-6.87-7.48-4.17-15.63-2.83-23.6-3-1.54,0-3.61-.22-4-1.52-1.55-5.81-6.62-4.74-10.44-5.32-6.39-1-6.45-.62-6.3-7.21,0-1,.17-2,.26-3,5.54-.42,10.79,3.77,16.49,1.05.07,3.62.26,7.25.16,10.87-.06,2.31.66,3.23,3.07,3.15,11-.37,22.08.94,32.93-1.89.19,1,0,3.17,1.45,2.27,2.45-1.49,3.3-.7,4.47,1.32a3.12,3.12,0,0,0,2.63,1c4.07-.61,7.4,2.24,11.31,2.16A29.91,29.91,0,0,1,203.16,243.83Z"/><path class="cls-6" d="M414.94,252.81c-1.32-2.13-2.69-3.18-5.61-2.16-3.87,1.35-8,1.3-11.15-2.07a5.89,5.89,0,0,0-4.41-1.76c4.8-4.37,6.49-9.57,4.19-15.82,1.32-1.25,2.59-2.67,4.7-1.65,5.17,2.5,11,1.88,16.35,3.62A26.38,26.38,0,0,1,414.94,252.81Z"/><path class="cls-13" d="M2.15,173.08C2.47,167.27,4,161.66,5,156c.3-1.69,1-2.65,2.92-2.62,4.64.07,9.29.09,13.93,0,3.47-.06,2.1,2.22,1.83,3.74C22.37,164.41,21,171.72,19.58,179c-1.69-1.65-2.07-5-5.12-4.83C10.27,174.44,6.29,173.06,2.15,173.08Z"/><path class="cls-3" d="M381,185.1c1.81-.28,3,.88,4.52,1.61,2.76,1.38,5.49,3,8.89,1.76,3.55-1.31,4.55.38,4.66,3.87.13,4.55-1.13,9.2.78,13.64l2.05,1.44c-2.58,4-5.6,3.93-9,1-2.73-2.32-6.39-2.22-9.39-2.05-2.69.15-5.17-.36-7.74-.48,4.72-.93,6.09-3.75,5.49-8.42C380.76,193.43,381.09,189.24,381,185.1Z"/><path class="cls-6" d="M375.28,240.89c-5,.47-9-3.14-14-3.66a43.26,43.26,0,0,0-7-.25,26.64,26.64,0,0,1,5.06-18c6-1.33,10.56,3.6,16.36,3.53,2.7,0,2.17,3.2,2.92,5l-.11.05c-1-.5-2.11-1-3,.07-.72.91-.2,1.75.67,2.34A18.18,18.18,0,0,0,375.28,240.89Z"/><path class="cls-5" d="M311.23,216.65a8.81,8.81,0,0,0-7.79-6.44c-4.12-.38-7.73-2.87-12-2.4a2.93,2.93,0,0,1-3.15-2.62c8.89-.14,17.62-.74,23.78-8.51,3.08,2.39,6.9,1.6,10.36,2.23,2.24.4,4.56.6,6.8,1.15C326,208.6,319.59,213.69,311.23,216.65Z"/><path class="cls-12" d="M91.7,219.38c1.82-2.19,2.59-4.07-1.39-4.42-6.78-.58-12.34-5.4-19.34-5.46-2.28,0-4.62-1.16-4.21-4.36L92.64,205a1.7,1.7,0,0,0,.76-.21l2.31-.51c5.26,2.59,11.84,3.62,13,11.05A33.19,33.19,0,0,1,91.7,219.38Z"/><path class="cls-1" d="M425,151.18A10,10,0,0,1,415,140.64a10.53,10.53,0,0,1,10.4-10.4,10.9,10.9,0,0,1,10.55,10.44A10.65,10.65,0,0,1,425,151.18Z"/><path class="cls-7" d="M49,228c4.72-1,8.24,2.75,12.65,3.29,2.68.32,3-.38,3.17-2.63.27-2.92-1.52-6.37,1.84-8.64-1,7.22-.37,14.47-.35,21.7,0,3.71-.68,5.24-4.84,5.2-12.68-.1-12.69.08-12.67-12.5C48.81,232.24,48.93,230.1,49,228Z"/><path class="cls-6" d="M215.32,185.29c0-2.26.82-3.76,3.14-2.26a43.87,43.87,0,0,0,12.31,5.29c2,.55,2.15,3.31,4.3,3.74a48.09,48.09,0,0,1,.13,14c-2.89-1.66-6.87-1-9.11-2.43-3.28-2.16-5.22-2-7.75.27C218.73,197.45,217,191.38,215.32,185.29Z"/><path class="cls-13" d="M254.59,217.1c4.31-4.59,8.26-4.12,11.8,1.46.55.86,1,1.45,1.69.37,2.54-3.92,2.22.59,3.25,1.07-2.25,5-.26,10-.17,15-4.15,0-8.3,0-12.45,0-1.82,0-3.22-.26-3.38-2.58C255,227.31,253.69,222.26,254.59,217.1Z"/><path class="cls-14" d="M254.59,217.1c-.9,5.16.37,10.21.74,15.3.16,2.32,1.56,2.59,3.38,2.58,4.15,0,8.3,0,12.45,0,.86,11.76.86,11.76-10.79,11.75-6.37,0-6.37,0-6.37-6.46q0-40.35-.05-80.7c0-1.64.19-3.28.3-4.92l.18,14.54a198.78,198.78,0,0,0,0,22C254.19,199.81,254.06,208.46,254.59,217.1Z"/><path class="cls-14" d="M108.68,215.28c-1.13-7.43-7.71-8.46-13-11.05a20,20,0,0,0,13-11.19c1.06.17,2.89-.19,2.48,1.51-1.17,4.84,2,3.71,4.2,3,3.38-1.08,6.14.25,9,1.46A26.42,26.42,0,0,1,108.68,215.28Z"/><path class="cls-12" d="M2.15,173.08c4.14,0,8.12,1.36,12.31,1.12,3.05-.18,3.43,3.18,5.12,4.83-.11.78-.21,1.57-.31,2.35-.14,1.12-.29,2.24-.43,3.36-.11,3.45-.21,6.89-.32,10.34-.2,0-.41,0-.61,0a3.74,3.74,0,0,0-1.73-2.84,16.08,16.08,0,0,0-15-2.07L1,186.5a19.08,19.08,0,0,1,.37-6.65L2,175.58Z"/><path class="cls-13" d="M366.12,261.56c.46-4.54,4.46-3.05,6-2.39,5,2.13,10.17.74,15.19,1.64,5.56,1,7.58,2.74,6.73,7.41-5.19,0-8.12,2.79-9.36,7.64-4.21.32-6-5.32-10.55-4.28-.13,0-.58-.5-.54-.7,1.26-6.6-3.16-2.55-5.27-2.83l.06-.44.45-.05.33-1.34c.31-1.89-1.06-2.83-2.2-3.9a1.45,1.45,0,0,0-.46-.43l-.3,0Z"/><path class="cls-14" d="M49,193.06v-17c2.08.12,4.61-.75,6.12.82,3.19,3.32,6.86,2.68,10.65,2.16a77.79,77.79,0,0,1,0,14.95Z"/><path class="cls-13" d="M65.78,179.07c-3.79.53-7.46,1.17-10.65-2.15-1.51-1.57-4-.7-6.12-.82q0-8.47,0-17c2.43-.36,3.95,1.45,5.65,2.58,2.11,1.4,4.15,2.66,6.78,2.4,3.21-.32,4.46,1.39,4.56,4.33Q65.89,173.76,65.78,179.07Z"/><path class="cls-13" d="M124.43,199c-2.89-1.21-5.65-2.54-9-1.46-2.21.71-5.37,1.84-4.2-3,.41-1.7-1.42-1.34-2.48-1.51l.33-1.94c1.4-.41,2-1,.5-2.1l0-4.93c2.83-3.2,7.23-2.83,10.67-4.67,1.27-.68,2,.44,2.81,1.37,1,1.19,1.41,3.13,3.43,3.3v5c-.12.09-.34.21-.32.27a3.7,3.7,0,0,0,.28.69c-.08,1-.16,2-.23,3-2.51.9-1.3,2.92-1.37,4.55Z"/><path class="cls-12" d="M356.15,292.87l7-12.89c.31.52.61,1.49.93,1.5,5.72.12,11,1.9,16,4.37A60.94,60.94,0,0,1,373,299.49c-.45-2.09-.91-4.18-1.4-6.44-2.25,1.12-.84,3.2-2.39,4.11C365.52,293.74,361,292.81,356.15,292.87Z"/><path class="cls-11" d="M356.15,292.87c4.84-.06,9.37.87,13.09,4.29,1.55-.91.14-3,2.39-4.11.49,2.26.95,4.35,1.4,6.44a32.9,32.9,0,0,1-5,8.28c-3.84-.87-7.61-2.92-11.57-2.06-3.06.67-4.9-1.59-7.43-1.92l5.9-9c1-.27,1.2-1,1.22-1.93Z"/><path class="cls-14" d="M380.11,285.85c-5.07-2.47-10.32-4.25-16-4.37-.32,0-.62-1-.93-1.5,1-4.28,3.35-8,5.19-11.93,2.11.28,6.53-3.77,5.27,2.83,0,.2.41.73.54.7,4.53-1,6.34,4.6,10.55,4.28C383.43,279.32,382.35,282.85,380.11,285.85Z"/><path class="cls-14" d="M217.32,236.94c-3.91.08-7.24-2.77-11.31-2.16a3.12,3.12,0,0,1-2.63-1c-1.17-2-2-2.81-4.47-1.32-1.47.9-1.26-1.27-1.45-2.27a46.84,46.84,0,0,0,10.93-6.31c6.33.11,12.12,2.53,18.1,4.17A24.19,24.19,0,0,1,217.32,236.94Z"/><path class="cls-8" d="M218.34,203.87c2.53-2.32,4.47-2.43,7.75-.27,2.24,1.46,6.22.77,9.11,2.43a22.9,22.9,0,0,1-2.73,11,7.94,7.94,0,0,0-7.68-1.46c-3.27.88-6.89.8-8.34-3.5Z"/><path class="cls-13" d="M216.45,212.09c1.45,4.3,5.07,4.38,8.34,3.5a7.94,7.94,0,0,1,7.68,1.46,3.61,3.61,0,0,1-1.15,2.95c-1.18.12-2.31.4-2.56,1.77-.14.78.51,1.08,1.18,1.21-.83,1.9-1.68,3.78-3.45,5-6-1.64-11.77-4.06-18.1-4.17C212,220.54,214.2,216.31,216.45,212.09Z"/><path class="cls-12" d="M49,193.06l16.78,1c.11,3.59.21,7.19.32,10.78l-17.1.24Z"/><path class="cls-8" d="M229.94,223c-.67-.13-1.32-.43-1.18-1.21.25-1.37,1.38-1.65,2.56-1.77Z"/><path class="cls-6" d="M124.84,197.65c.07-1.63-1.14-3.65,1.37-4.55C125.91,194.66,125.94,196.33,124.84,197.65Z"/><path class="cls-2" d="M224.41,379.77c-1.8,1.63-4,.67-6,.89A11.24,11.24,0,0,1,224.41,379.77Z"/><path class="cls-13" d="M2,175.58c-.21,1.43-.42,2.85-.64,4.27C1.55,178.43,1.76,177,2,175.58Z"/><path class="cls-13" d="M18.84,184.74c.14-1.12.29-2.24.43-3.36C19.12,182.5,19,183.62,18.84,184.74Z"/><path class="cls-12" d="M356.13,292.89c0,.89-.22,1.66-1.22,1.93A2,2,0,0,1,356.13,292.89Z"/><path class="cls-2" d="M57,339.73a1.76,1.76,0,0,1,1.8,1.76A2.79,2.79,0,0,1,57,339.73Z"/><path class="cls-9" d="M373.09,145.2c1.15.7.94,1.85,1,2.92A3.11,3.11,0,0,1,373.09,145.2Z"/><path class="cls-6" d="M355.07,243.05a4.2,4.2,0,0,1,.76-.27,1.58,1.58,0,0,1-.49,2.13Z"/><path class="cls-2" d="M52.49,334.87a1.57,1.57,0,0,1,1.34,1.56Z"/><path class="cls-2" d="M94.65,347.7a2,2,0,0,1-2-.95A1.61,1.61,0,0,1,94.65,347.7Z"/><path class="cls-2" d="M97.54,349.72a1.6,1.6,0,0,1-1.75-1.15Z"/><path class="cls-2" d="M100.53,351.74a1.76,1.76,0,0,1-1.8-1.07A1.87,1.87,0,0,1,100.53,351.74Z"/><path class="cls-4" d="M282.3,362l-1.95.75Z"/><path class="cls-4" d="M280.28,362.75a2,2,0,0,1-2,1A2.21,2.21,0,0,1,280.28,362.75Z"/><path class="cls-6" d="M126.44,190.05a3.7,3.7,0,0,1-.28-.69c0-.06.2-.18.32-.27Z"/><path class="cls-8" d="M366.51,261.89a1.45,1.45,0,0,1,.46.43l-.39,0Z"/><path class="cls-2" d="M54.17,336.79a1.4,1.4,0,0,1,.6.63A.63.63,0,0,1,54.17,336.79Z"/><path class="cls-12" d="M87.73,219.77c.29-.43.6-.47.94-.05l-.46.19Z"/><path class="cls-2" d="M56.08,338.77a1.36,1.36,0,0,1,.68.68Z"/><path class="cls-14" d="M369.17,266.22l-.33,1.34C368.11,266.9,368.81,266.61,369.17,266.22Z"/><path class="cls-2" d="M59.07,341.76a1.38,1.38,0,0,1,.69.68Z"/><path class="cls-2" d="M60.07,342.76a1.25,1.25,0,0,1,.66.66Z"/><path class="cls-2" d="M61.05,343.78a1.13,1.13,0,0,1,.68.67Z"/><path class="cls-2" d="M98.73,350.67c-.33-.28-.66-.56-1-.83Z"/><path class="cls-2" d="M101.74,352.67l-1-.82Z"/><path class="cls-4" d="M302.26,371.67l1.36-.89Z"/><path class="cls-2" d="M55,337.77l.72.73Z"/><path class="cls-5" d="M271.24,170.12l0,27.93c-4-2-8.05-4-12-6.07a7.8,7.8,0,0,0-4.71-.82,198.78,198.78,0,0,1,0-22c4.2-.92,8.41-2.81,12.18,1.33C267.94,172,269.65,170.05,271.24,170.12Z"/><path class="cls-6" d="M161.39,169.09l-.06,20c-5.47-1.29-11-2.36-16.57-.83a185.94,185.94,0,0,1-.08-22C150.62,165,156.48,164.29,161.39,169.09Z"/><path class="cls-13" d="M144.76,188.24c5.61-1.53,11.1-.46,16.57.83q0,8.09,0,16.18c-5.53.08-10.93-1.74-16.5-1.2Q144.78,196.15,144.76,188.24Z"/><path class="cls-14" d="M144.81,204.05c5.57-.54,11,1.28,16.5,1.2q0,6.38,0,12.77c-5.7,2.72-11-1.47-16.49-1.05A68.85,68.85,0,0,1,144.81,204.05Z"/><path class="cls-5" d="M273.32,205.2h4.94A3.77,3.77,0,0,1,273.32,205.2Z"/><path class="cls-11" d="M1.17,190.15a16.08,16.08,0,0,1,15,2.07,3.74,3.74,0,0,1,1.73,2.84c-.24,10.89-.24,10.82-12.26,11C2.31,206.14.71,205,.9,201.52,1.11,197.74,1.09,193.94,1.17,190.15Z"/><path class="cls-5" d="M378.54,227.65l-2.29,2.41c-.87-.59-1.39-1.43-.67-2.34C376.43,226.65,377.53,227.15,378.54,227.65Z"/><path class="cls-14" d="M92.64,205l.33-.33.44.12A1.78,1.78,0,0,1,92.64,205Z"/><path class="cls-14" d="M109.05,191.1c.16-.7.33-1.4.5-2.1C111,190.09,110.45,190.69,109.05,191.1Z"/></g></g></svg>